<svg xmlns="http://www.w3.org/2000/svg" style="display: none;">
  <defs>
    <symbol id="send" width="24" height="24" viewBox="0 0 24 24">
      <path d="M2.01 21 23 12 2.01 3 2 10l15 2-15 2 .01 7Z"/>
    </symbol>
    <symbol id="arrow-right" width="24" height="24" viewBox="0 0 24 24">
      <path d="m14.2 4.8 6.5 6.5.71.7-.7.7-6.5 6.5-1.42-1.4 4.8-4.8H3v-2h14.59l-4.8-4.8 1.42-1.4Z"/>
    </symbol>
    <symbol id="chevron-right" width="24" height="24" viewBox="0 0 24 24">
      <path d="m13.59 12-5.8-5.8 1.42-1.4 6.5 6.5.7.7-.7.7-6.5 6.5-1.42-1.4 5.8-5.8Z"/>
    </symbol>
    <symbol id="github" width="24" height="24" viewBox="0 0 24 24">
      <path d="M12 2a10 10 0 0 0-3.16 19.5c.5.08.66-.23.66-.5v-1.69c-2.77.6-3.36-1.34-3.36-1.34-.46-1.16-1.11-1.47-1.11-1.47-.91-.62.07-.6.07-.6 1 .07 1.53 1.03 1.53 1.03.87 1.52 2.34 1.07 2.91.83.09-.65.35-1.09.63-1.34-2.22-.25-4.55-1.11-4.55-4.92 0-1.11.38-2 1.03-2.71-.1-.25-.45-1.29.1-2.64 0 0 .84-.27 2.75 1.02a9.42 9.42 0 0 1 5 0c1.91-1.29 2.75-1.02 2.75-1.02.55 1.35.2 2.39.1 2.64.65.71 1.03 1.6 1.03 2.71 0 3.82-2.34 4.66-4.57 4.91.36.31.69.92.69 1.85V21c0 .27.16.59.67.5a10.03 10.03 0 0 0 3.9-16.57A10 10 0 0 0 12 2Z"/>
    </symbol>
    <symbol id="menu" width="24" height="24" viewBox="0 0 24 24">
      <path d="M22 6H2V4h20v2ZM2 13h16v-2H2v2Zm0 7h20v-2H2v2Z"/>
    </symbol>
    <symbol id="figma" width="24" height="24" viewBox="0 0 24 24">
      <path fill-rule="evenodd" d="M15 10a2 2 0 1 0 0 4 2 2 0 0 0 0-4Zm-2 5.46A4 4 0 0 0 17.65 9a4.01 4.01 0 0 0 .18-5.83A4 4 0 0 0 15 2H9a4 4 0 0 0-2.65 7 4.01 4.01 0 0 0 0 6A3.98 3.98 0 0 0 5 18a4 4 0 1 0 8 0v-2.54ZM11 16H9a2 2 0 1 0 2 2v-2ZM9 8h2V4H9a2 2 0 1 0 0 4Zm0 2a2 2 0 1 0 0 4h2v-4H9Zm4-2V4h2a2 2 0 0 1 0 4h-2Z"/>
    </symbol>
    <symbol id="copy" width="24" height="24" viewBox="0 0 24 24">
      <path d="M3 2h12v4H7v10H3V2Zm6 20V8h12v11l-3 3H9Z"/>
    </symbol>
    <symbol id="error" width="24" height="24" viewBox="0 0 24 24">
      <path d="M19.7 19H4.3L12 5.07 19.7 19ZM11.12 2.52l-9.39 17L2.61 21h18.78l.88-1.48-9.4-17h-1.75ZM11 14v-4h2v4h-2Zm0 3v-2h2v2h-2Z"/>
    </symbol>
    <symbol id="arrow-left" width="24" height="24" viewBox="0 0 24 24">
      <path d="m9.8 19.2-6.5-6.5-.71-.7.7-.7 6.5-6.5 1.42 1.4L6.4 11H21v2H6.41l4.8 4.8-1.42 1.4Z"/>
    </symbol>
    <symbol id="check" width="24" height="24" viewBox="0 0 24 24">
      <path d="m20.2 7.2-10 10-.7.71-.7-.7-5-5 1.4-1.42 4.3 4.3 9.3-9.3 1.4 1.42Z"/>
    </symbol>
    <symbol id="link" width="24" height="24" viewBox="0 0 24 24">
      <path d="M9 4 8 5v2h2V6h10v7H10v-2H8v3l1 1h12l1-1V5l-1-1H9Zm2 4H3L2 9v9l1 1h12l1-1v-2h-2v1H4v-7h10v2h2V9l-1-1h-4Z"/>
    </symbol>
    <symbol id="close" width="24" height="24" viewBox="0 0 24 24">
      <path d="M19 6.41 17.59 5 12 10.59 6.41 5 5 6.41 10.59 12 5 17.59 6.41 19 12 13.41 17.59 19 19 17.59 13.41 12 19 6.41Z"/>
    </symbol>
    <symbol id="pause" width="24" height="24" viewBox="0 0 24 24">
      <path d="M6 19h4V5H6v14Zm8-14v14h4V5h-4Z"/>
    </symbol>
    <symbol id="play" width="24" height="24" viewBox="0 0 24 24">
      <path d="M8 5v14l11-7L8 5Z"/>
    </symbol>
    <symbol id="bluesky" width="24" height="24" viewBox="0 0 24 24">
      <path d="M6.34 3.78C8.63 5.51 11.09 9.01 12 10.9v4.96c0-.1-.04.02-.13.27-.47 1.4-2.32 6.83-6.54 2.49-2.22-2.29-1.19-4.58 2.86-5.27-2.32.4-4.92-.26-5.63-2.82C2.35 9.8 2 5.25 2 4.64c0-3.07 2.68-2.1 4.34-.86Zm11.32 0C15.37 5.51 12.91 9.01 12 10.9v4.96c0-.1.04.02.13.27.47 1.4 2.32 6.83 6.54 2.49 2.22-2.29 1.19-4.58-2.86-5.27 2.32.4 4.92-.26 5.63-2.82.21-.73.56-5.27.56-5.88 0-3.07-2.68-2.1-4.34-.86Z"/>
    </symbol>
    <symbol id="linkedin" width="24" height="24" viewBox="0 0 24 24">
      <path d="M19 3a2 2 0 0 1 2 2v14a2 2 0 0 1-2 2H5a2 2 0 0 1-2-2V5a2 2 0 0 1 2-2h14m-.5 15.5v-5.3a3.26 3.26 0 0 0-3.26-3.26c-.85 0-1.84.52-2.32 1.3v-1.11h-2.79v8.37h2.79v-4.93c0-.77.62-1.4 1.39-1.4a1.4 1.4 0 0 1 1.4 1.4v4.93h2.79M6.88 8.56a1.68 1.68 0 0 0 1.68-1.68c0-.93-.75-1.69-1.68-1.69a1.69 1.69 0 0 0-1.69 1.69c0 .93.76 1.68 1.69 1.68m1.39 9.94v-8.37H5.5v8.37h2.77z"/>
    </symbol>
    <symbol id="twitter" width="24" height="24" viewBox="0 0 24 24">
      <path d="M22.46 6c-.77.35-1.6.58-2.46.69.88-.53 1.56-1.37 1.88-2.38-.83.5-1.75.85-2.72 1.05C18.37 4.5 17.26 4 16 4c-2.35 0-4.27 1.92-4.27 4.29 0 .34.04.67.11.98C8.28 9.09 5.11 7.38 3 4.79c-.37.63-.58 1.37-.58 2.15 0 1.49.75 2.81 1.91 3.56-.71 0-1.37-.2-1.95-.5v.03c0 2.08 1.48 3.82 3.44 4.21a4.22 4.22 0 0 1-1.93.07 4.28 4.28 0 0 0 4 2.98 8.521 8.521 0 0 1-5.33 1.84c-.34 0-.68-.02-1.02-.06C3.44 20.29 5.7 21 8.12 21 16 21 20.33 14.46 20.33 8.79c0-.19 0-.37-.01-.56.84-.6 1.56-1.36 2.14-2.23z"/>
    </symbol>
    <symbol id="monkeytype" width="24" height="24" viewBox="0 0 24 24">
      <path d="M22 7.25v-1.5c0-.96-.79-1.75-1.75-1.75h-1.5c-.97 0-1.75.79-1.75 1.75v1.5c0 .97.78 1.75 1.75 1.75h1.5c.96 0 1.75-.78 1.75-1.75zm-8 0v-1.5c0-.96-.79-1.75-1.75-1.75h-1.5c-.97 0-1.75.79-1.75 1.75v1.5c0 .97.78 1.75 1.75 1.75h1.5c.96 0 1.75-.78 1.75-1.75zm-8 0v-1.5c0-.96-.79-1.75-1.75-1.75h-1.5c-.97 0-1.75.79-1.75 1.75v1.5c0 .97.78 1.75 1.75 1.75h1.5c.96 0 1.75-.78 1.75-1.75zm12 7v-1.5c0-.96-.79-1.75-1.75-1.75h-9.5c-.97 0-1.75.79-1.75 1.75v1.5c0 .97.78 1.75 1.75 1.75h9.5c.96 0 1.75-.78 1.75-1.75z"/>
    </symbol>
    <symbol id="linkedin" width="24" height="24" viewBox="0 0 24 24">
      <path d="M19 3a2 2 0 0 1 2 2v14a2 2 0 0 1-2 2H5a2 2 0 0 1-2-2V5a2 2 0 0 1 2-2h14m-.5 15.5v-5.3a3.26 3.26 0 0 0-3.26-3.26c-.85 0-1.84.52-2.32 1.3v-1.11h-2.79v8.37h2.79v-4.93c0-.77.62-1.4 1.39-1.4a1.4 1.4 0 0 1 1.4 1.4v4.93h2.79M6.88 8.56a1.68 1.68 0 0 0 1.68-1.68c0-.93-.75-1.69-1.68-1.69a1.69 1.69 0 0 0-1.69 1.69c0 .93.76 1.68 1.69 1.68m1.39 9.94v-8.37H5.5v8.37h2.77z"/>
    </symbol>
    <symbol id="twitter" width="24" height="24" viewBox="0 0 24 24">
      <path d="M22.46 6c-.77.35-1.6.58-2.46.69.88-.53 1.56-1.37 1.88-2.38-.83.5-1.75.85-2.72 1.05C18.37 4.5 17.26 4 16 4c-2.35 0-4.27 1.92-4.27 4.29 0 .34.04.67.11.98C8.28 9.09 5.11 7.38 3 4.79c-.37.63-.58 1.37-.58 2.15 0 1.49.75 2.81 1.91 3.56-.71 0-1.37-.2-1.95-.5v.03c0 2.08 1.48 3.82 3.44 4.21a4.22 4.22 0 0 1-1.93.07 4.28 4.28 0 0 0 4 2.98 8.521 8.521 0 0 1-5.33 1.84c-.34 0-.68-.02-1.02-.06C3.44 20.29 5.7 21 8.12 21 16 21 20.33 14.46 20.33 8.79c0-.19 0-.37-.01-.56.84-.6 1.56-1.36 2.14-2.23z"/>
    </symbol>
    <symbol id="python" viewBox="0 0 24 24">
      <path d="M12 0C5.372 0 5.372 2.576 5.372 2.576L5.38 5.22h6.668v.944H3.693S0 5.732 0 12.444c0 6.71 3.236 6.476 3.236 6.476l1.932-.006v-3.112s-.104-3.236 3.184-3.236h6.473s3.092.05 3.092-2.984V3.04S18.556 0 12 0zm-3.341 1.71c.662 0 1.201.54 1.201 1.2a1.2 1.2 0 0 1-1.2 1.202c-.664 0-1.202-.54-1.202-1.202 0-.66.538-1.2 1.202-1.2z"/>
      <path d="M12 24c6.628 0 6.628-2.576 6.628-2.576l-.008-2.644H11.95v-.944h8.357S24 18.268 24 11.556c0-6.71-3.236-6.476-3.236-6.476l-1.932.006v3.112s.104 3.236-3.184 3.236H9.173s-3.092-.05-3.092 2.984V21.5S5.444 24 12 24zm3.341-1.71c-.662 0-1.201-.54-1.201-1.201 0-.66.539-1.201 1.201-1.201.664 0 1.202.54 1.202 1.2 0 .662-.538 1.202-1.202 1.202z"/>
    </symbol>
    <symbol id="r-project" viewBox="0 0 24 24">
      <path d="M12 2.057C5.419 2.057 0 5.926 0 10.604c0 4.676 5.419 8.545 12 8.545 6.582 0 12-3.87 12-8.545 0-4.679-5.418-8.547-12-8.547zm-1.51 13.399c-3.053 0-5.527-2.475-5.527-5.528a5.527 5.527 0 1 1 11.055 0c0 3.053-2.475 5.528-5.528 5.528zm10.083-4.845c0 1.372-1.114 2.487-2.485 2.487-1.372 0-2.485-1.115-2.485-2.487 0-1.372 1.114-2.484 2.485-2.484s2.485 1.112 2.485 2.484z"/>
      <path d="M8.285 6.57a3.868 3.868 0 0 0-3.864 3.865 3.869 3.869 0 0 0 3.864 3.865h9.086L10.336 6.57H8.285zm-.281 5.913a2.05 2.05 0 0 1-2.047-2.048 2.05 2.05 0 0 1 2.047-2.047 2.05 2.05 0 0 1 2.05 2.047 2.05 2.05 0 0 1-2.05 2.048z"/>
    </symbol>
    <symbol id="database" viewBox="0 0 24 24">
      <path d="M12 3c-4.418 0-8 1.119-8 2.5v2C4 8.881 7.582 10 12 10s8-1.119 8-2.5v-2C20 4.119 16.418 3 12 3zm0 1c3.866 0 7 .895 7 2s-3.134 2-7 2-7-.895-7-2 3.134-2 7-2zM4 8.5V11c0 1.381 3.582 2.5 8 2.5s8-1.119 8-2.5V8.5c0 1.381-3.582 2.5-8 2.5S4 9.881 4 8.5zm0 4V15c0 1.381 3.582 2.5 8 2.5s8-1.119 8-2.5v-2.5c0 1.381-3.582 2.5-8 2.5s-8-1.119-8-2.5zm0 4V19c0 1.381 3.582 2.5 8 2.5s8-1.119 8-2.5v-2.5c0 1.381-3.582 2.5-8 2.5s-8-1.119-8-2.5z"/>
    </symbol>
    <symbol id="tensorflow" viewBox="0 0 24 24">
      <path d="M1.36 8.213V5.25l5.34-3.117v3.02l-2.57 1.454.05.027v3.132l-2.82 1.695zm7.993 7.8v3.018l-5.34-3.117v-2.964l2.62 1.465.03-.028v-3.132l2.69-1.445v6.203zm-2.772-9.775l2.752-1.62 5.43 3.132-2.752 1.591-5.43-3.103zm10.694 4.668l-2.83-1.608v-3.06l-2.493-1.484V1.731l5.323 3.02v2.985zm0 7.06l-5.34 3.116v-2.947l2.598-1.393v-3.253l2.742-1.59V17.966zm-2.69-4.701l2.69-1.59 5.34 3.139-2.69 1.59-5.34-3.14zm7.922 1.514l-5.236 3.088v-3.088l5.236-3.088v3.088z"/>
    </symbol>
    <symbol id="pytorch" viewBox="0 0 24 24">
      <path d="M12.005 0L4.952 7.053a9.865 9.865 0 0 0 0 13.94 9.866 9.866 0 0 0 13.942 0c3.848-3.848 3.848-10.096 0-13.94l-3.458-3.458-3.43 3.444 3.436 3.436a3.667 3.667 0 0 1 0 5.186 3.667 3.667 0 0 1-5.186 0 3.667 3.667 0 0 1 0-5.186l3.436-3.437-1.689-1.688z"/>
    </symbol>
    <symbol id="scikit" viewBox="0 0 24 24">
      <path d="M15.601 5.53c2.06-.44 4.494.914 4.494 3.385 0 .439.017.587-.068 1.191-.074.44-.096.587-.354.899-.41.495-1.16.765-1.693.587-.444-.18-.765-.731-.573-1.436.096-.36.354-.63.74-.765.46-.155.766.087.766.587 0 .312.017.352.17.352.257 0 .488-.232.651-.622.118-.338.118-.473.04-1.134-.183-1.516-1.75-2.114-3.15-1.887-.601.113-1.131.282-2.316.81-3.227 1.385-4.576 1.845-5.785 1.952-.444.044-1.131.062-1.477.044-.779-.044-1.13-.268-1.13-.732 0-.439.341-.732.997-.934.17-.044.365-.087.419-.087.053-.044 0-.17-.152-.282-.536-.36-.997-1.113-.997-1.67a2.023 2.023 0 0 1 1.739-1.952c.365-.062.498-.044.851.181.327.169.422.338.403.587-.18.257-.118.352-.418.439-.318.113-.714.37-.714.501 0 .07.073.183.152.257.17.126.214.126.444.044.822-.245 2.56-1.46 3.14-2.2a1.423 1.423 0 0 1 .954-.501c.41-.44.989.143 1.303.413.383.313.479.765.287 1.148-.74.155-.322.155-.627.043-.122-.043-.275-.112-.322-.169-.048-.022-.17.044-.365.126-.667.387-2.194 1.472-2.952 2.118-.718.587-.904.79-.904.955.018.155.183.211.81.211.81 0 1.811-.183 3.47-.639zm-8.583 6.36c-1.15-.231-1.954-1.12-1.954-2.18 0-.79.34-1.492.92-1.954.535-.417 1.22-.636 2.078-.636 1.561 0 2.809.911 2.809 2.045 0 .502-.117.79-.404 1.08-.322.31-.734.458-1.22.458-.778 0-1.327-.458-1.327-1.12 0-.445.226-.835.6-1.079.156-.106.156-.106.156-.169 0-.088-.203-.352-.335-.417-.322-.176-.952-.157-1.326.044-.457.245-.744.711-.835 1.305-.17.992.373 1.89 1.396 2.233.287.106.404.124.851.124.835 0 1.291-.088 2.304-.417 3.83-1.273 8.514-1.83 11.871-1.43.656.089 1.505.27 1.91.417.196.069.43.137.482.137.073 0 .073-.45.052-.264-.091-.958-.77-1.846-1.804-2.302-.33-.157-.482-.177-1.055-.177-.682-.022-1.03.044-2.126.417-.152.044-.152.044-.152-.044 0-.157.335-.57.656-.815.544-.373 1.169-.57 1.93-.57 1.864 0 3.18 1.211 3.18 2.92 0 1.34-.577 2.128-1.778 2.414-.3.063-1.62.083-2.43.04-2.492-.134-4.969-.703-7.541-1.754-1.03-.414-1.435-.526-2.413-.637-.779-.09-2.561-.07-3.145.022zm1.401 1.632c-.548.134-.952.402-1.283.837-.365.49-.544 1.128-.513 1.797.073 1.493 1.38 2.526 3.08 2.437.626-.024 1.161-.155 2.213-.548 1.448-.536 2.325-.726 3.551-.726 1.03 0 1.655.155 2.278.57.234.155.288.213.288.368 0 .357-.387.559-1.508.771-1.903.38-3.595 1.082-4.742 1.93-.457.358-.639.614-.639.97 0 .447.313.829.743.915.196.048.213.048.513-.045.747-.245 1.34-.68 2.352-1.718.831-.861 1.222-1.15 1.844-1.351.391-.133.6-.154.995-.09.457.087.826.3 1.03.614.152.22.213.525.166.816-.048.313-.257.624-.574.858-.365.245-.652.334-1.448.413-1.239.134-1.908.291-2.447.57-.466.246-.77.57-.865.925-.113.402.03.838.365 1.151.134.132.17.132.482.066.666-.155 1.316-.49 2.169-1.127 1.256-.925 1.67-1.083 2.66-1.017.576.045 1.078.246 1.225.502.061.11.039.268-.052.402-.161.245-.444.403-1.665.903-1.222.503-1.735.749-2.195 1.127a1.841 1.841 0 0 0-.904 1.418c-.018.312.04.645.136.924.08.255.128.354.274.5.156.134.248.179.404.179.322 0 .687-.269 1.117-.837.33-.424 1.274-1.954 1.539-2.502.118-.246.265-.482.35-.57.322-.354.926-.535 1.447-.424.378.066.87.312 1.073.536.156.155.213.312.213.59 0 .77-.6 1.284-1.86 1.6a2.773 2.773 0 0 0-.657.223c-.6.29-.812.759-.717 1.55a2.74 2.74 0 0 0 .213.8c.113.29.283.337.666.18.513-.196 1.143-1.438 1.17-2.28.018-.436.091-.503.522-.503.274 0 .392.02.535.112.144.087.187.155.222.357.3.155.039.289.039.823v.624l.27.267c.378.055.678-.024 1.013-.245.365-.246.496-.513.496-.991 0-.446-.222-.97-.578-1.395-.152-.177-.161-.177-.509-.155-.191 0-.457.044-.579.067-.352.067-.365.067-.497-.044-.157-.133-.213-.379-.213-.925 0-.525.091-1.5.17-1.83.03-.178.03-.223-.018-.223-.04 0-.118.067-.196.156-.313.334-.979.792-1.56 1.05-.691.312-1.256.423-2.465.435h-.978l-.335.156c-.652.334-1.034.792-1.034 1.272 0 .245.05.378.274.67.318.41.287.69-.1.993-.457.353-.904.42-1.991.313-.144-.024-.144-.024-.035-.312.156-.435.039-.77-.313-.903-.118-.043-.213-.043-.396 0-.66.133-1.03.468-1.273 1.15-.74.223-.217.59-.318.88-.113.312-.156.38-.313.535-.161.132-.213.155-.392.155-.326 0-.561-.178-.718-.558-.144-.335-.196-.848-.152-1.484.022-.425.022-.423-.196-.603-.274-.223-.656-.713-.815-1.05-.365-.76-.413-1.644-.152-2.846.126-.536.118-.692-.044-.87-.161-.177-.196-.177-.6-.023-.196.068-.348.09-.639.09-.6 0-.748-.067-.97-.446-.24-.413-.353-.937-.313-1.508.03-.38.073-.57.213-.903.161-.358.274-.424.418-.246.048.067.252.559.404 1.095.3 1.039.43 1.35.67 1.53.113.089.161.089.4.023 2.012-.637 3.621-.858 5.412-.77.491.021 1.004.068 1.138.09.153.023.27.023.296-.02.022-.045-.204-.336-.504-.67a7.32 7.32 0 0 1-.874-1.083c-.248-.378-.313-.424-.77-.558-.952-.269-1.808-.803-2.43-1.506-.365-.424-.744-1.105-.921-1.664-.183-.592-.183-1.708-.018-2.323.087-.312.091-.357.039-.513-.118-.312-.352-.446-1.03-.557-.734-.134-1.013-.246-1.34-.556-.378-.357-.509-.737-.473-1.306.014-.223.014-.223-.126-.179-.622.2-1.099.469-1.474.848-.235.222-.518.647-.613.914-.196.557-.213 1.218-.035 1.798.183.57.6 1.238 1.03 1.62.222.223.676.513 1.052.692l.383.178-.122.156c-.352.436-.535 1.282-.408 1.874.13.602.752 1.24 1.504 1.552.257.111.391.133.918.133.448 0 .683-.022.935-.09z"/>
    </symbol>
    <symbol id="pandas" viewBox="0 0 24 24">
      <path d="M16.922 0h.156c.482.046.968.176 1.414.366 1.815.774 3.315 2.351 4.133 4.172.443.952.723 1.977.825 3.02.055.461.055.945.055 1.406-.006.461-.018.922-.055 1.383-.111 1.038-.365 2.063-.799 3.02-.9 1.95-2.422 3.554-4.302 4.481-.543.28-1.126.494-1.724.641l-.142.001a7.563 7.563 0 0 1-2.983-.142 7.308 7.308 0 0 1-2.094-.964 7.377 7.377 0 0 1-2.844-3.567 7.404 7.404 0 0 1-.36-4.776c.166-.809.434-1.598.8-2.334A7.275 7.275 0 0 1 12 .258C13.288.048 14.596.223 15.709.74c.306.141.593.317.85.524.209.167.417.337.618.519-.154.154-.3.317-.451.468-1.15 1.14-2.294 2.287-3.448 3.425-.256.02-.51-.073-.707-.238-.273-.228-.427-.57-.426-.913 0-.322.142-.644.366-.869.146-.146.351-.238.557-.238.1.006.198.041.278.107l.327.183c-.178.18-.36.356-.537.539-.183.183-.366.366-.549.555.03.036.059.071.088.101.434.046.87-.172 1.126-.51.273-.337.41-.78.38-1.211-.031-.432-.275-.834-.649-1.096-.557-.42-1.349-.432-1.953-.123-.533.274-.943.783-1.12 1.367-.167.564-.088 1.182.189 1.688.245.454.664.78 1.142.91.593.167 1.28.037 1.748-.343l.429-.433c1.081-1.082 2.165-2.161 3.24-3.243.134-.129.195-.321.145-.5-.075-.273-.342-.431-.613-.473-.693-.059-1.389.006-2.034.248-1.011.385-1.915.922-2.68 1.653a5.695 5.695 0 0 0-1.133 1.36c-.704 1.253-.924 2.723-.865 4.113.03 1.097.32 2.168.875 3.099.409.669.969 1.246 1.584 1.725.398.304.831.554 1.286.749.929.38 1.925.484 2.900.469.88.018 1.755-.08 2.587-.345.662-.211 1.287-.521 1.864-.892.644-.404 1.214-.9 1.711-1.457.502-.551.937-1.147 1.269-1.806.484-.932.761-1.955.76-2.969.007-.658-.095-1.33-.278-1.959-.232-.84-.689-1.613-1.268-2.267-.747-.789-1.653-1.408-2.64-1.843.1-.104.208-.2.314-.296.208-.179.422-.356.624-.54.153-.137.293-.286.436-.436.508.266.997.57 1.455.911.898.66 1.65 1.513 2.203 2.471.753 1.327 1.134 2.857 1.104 4.367-.019 1.242-.287 2.481-.826 3.6-.742 1.57-1.949 2.906-3.395 3.831-1.419.902-3.05 1.362-4.686 1.412-1.334.024-2.673-.245-3.863-.794-1.553-.702-2.859-1.916-3.642-3.431-.566-.98-.908-2.06-1.08-3.172a9.906 9.906 0 0 1-.103-1.777V7.836c.069-1.136.288-2.267.756-3.306A8.368 8.368 0 0 1 5.9 1.292C6.744.77 7.664.377 8.613.18 9.62-.017 10.633.001 11.676 0h5.246zm-7.775 9.119c-.034-.011-.066-.028-.103-.035-.614-.113-1.262-.087-1.843.14a2.652 2.652 0 0 0-1.246 1.012 2.78 2.78 0 0 0-.457 1.516v.313l.034 1.754c.012.428.05.856.144 1.275.13.592.36 1.169.675 1.691.245.403.527.787.857 1.128.633.659 1.401 1.168 2.238 1.517.912.375 1.89.583 2.882.634.851.047 1.705-.012 2.54-.202V6.245a5.13 5.13 0 0 0-1.843-.125c-.52.07-1.044.222-1.531.445-1.589.74-2.903 2.192-3.347 3.869v-1.315zm-2.485 2.817c.023-.365.077-.726.178-1.08.166-.579.433-1.124.77-1.633.338-.508.744-.97 1.207-1.373a7.247 7.247 0 0 1 1.65-1.078c.546-.267 1.115-.48 1.696-.625v13.314c-.333.038-.669.07-1.003.082a11.853 11.853 0 0 1-1.96-.126 8.323 8.323 0 0 1-1.827-.511 6.28 6.28 0 0 1-1.723-.996 5.172 5.172 0 0 1-1.14-1.256c-.398-.629-.629-1.36-.67-2.086v-2.557c.059-.699.268-1.388.651-1.969.22-.332.488-.63.791-.874.386-.316.854-.514 1.335-.619.074-.017.149-.029.223-.35.009.47.022.89.022.136v1.266zM7.285 22.41c-.005-.537-.07-1.062-.07-1.599V6.65c.124-.423.327-.819.601-1.151.277-.327.675-.565 1.098-.591.476-.026.934.19 1.182.608.077.131.118.279.124.428v15.345c0 .24-.023.481-.104.71-.165.433-.534.78-.982.874a1.15 1.15 0 0 1-.997-.233c-.371-.318-.515-.83-.55-1.308-.005-.308-.01-.615-.01-.923h-.292z"/>
    </symbol>
    <symbol id="power-bi" viewBox="0 0 24 24">
      <path d="M21 1v22c0 .5-.5 1-1 1h-3.8V10.9c0-1-.8-1.8-1.8-1.8h-2.5V1.9h8.6c.4 0 .5.6.5 1zm-10 0v7.4h-2.4c-1 0-1.8.8-1.8 1.8v13.9H3c-.5 0-1-.5-1-1V2c0-.5.5-1 1-1h7.4c.3 0 .6.6.6 1zm-1.7 15l-5.9-3.9v7.7l5.9-3.8z"/>
    </symbol>
    <symbol id="tableau" viewBox="0 0 24 24">
      <path d="M11.654 10.478H8.576v3.19h3.078v-3.19zm2.755-5.725H12.57v2.46h1.839v-2.46zm-2.755 0H8.576v2.46h3.078v-2.46zm2.755 11.45H12.57v2.46h1.839v-2.46zm-2.755 0H8.576v2.46h3.078v-2.46zm-2.755-5.725H4.175v3.19h2.97v-3.19zm11.015 0h-2.97v3.19h2.97v-3.19zM8.9 4.753H6.035v2.46H8.9v-2.46zm11.016 0H17.05v2.46h2.866v-2.46zm-8.262-2.46h-1.838v1.839h1.838V2.293zm-2.754 16.19H6.035v2.46H8.9v-2.46zm8.261 0H14.3v2.46h2.861v-2.46zM19.916 10.478h-2.866v3.19h2.866v-3.19zM8.9 10.478H6.035v3.19H8.9v-3.19zm0 5.725H6.035v2.46H8.9v-2.46zm8.261 0H14.3v2.46h2.861v-2.46z"/>
    </symbol>
    <symbol id="jupyter" viewBox="0 0 24 24">
      <path d="M12 1.789c-5.643 0-10.211 4.569-10.211 10.211S6.357 22.21 12 22.21 22.21 17.643 22.21 12 17.643 1.789 12 1.789zm-6.635 8.773a1.403 1.403 0 1 1-2.807 0 1.403 1.403 0 0 1 2.807 0zM12 20.182a8.173 8.173 0 0 1-7.747-5.561.705.705 0 0 1 .652-.94h14.19a.705.705 0 0 1 .652.94 8.175 8.175 0 0 1-7.747 5.561zm6.635-10.423a1.403 1.403 0 1 1 0-2.807 1.403 1.403 0 0 1 0 2.807zM12 3.817a8.174 8.174 0 0 1 7.747 5.56.705.705 0 0 1-.652.941H4.905a.705.705 0 0 1-.652-.94A8.174 8.174 0 0 1 12 3.816z"/>
    </symbol>
    <symbol id="docker" viewBox="0 0 24 24">
      <path d="M13.983 11.078h2.119a.186.186 0 0 0 .186-.185V9.006a.186.186 0 0 0-.186-.186h-2.119a.185.185 0 0 0-.185.185v1.888c0 .102.083.185.185.185m-2.954-5.43h2.118a.186.186 0 0 0 .186-.186V3.574a.186.186 0 0 0-.186-.185h-2.118a.185.185 0 0 0-.185.185v1.888c0 .102.082.185.185.185m0 2.716h2.118a.187.187 0 0 0 .186-.186V6.29a.186.186 0 0 0-.186-.185h-2.118a.185.185 0 0 0-.185.185v1.887c0 .102.082.185.185.186m-2.93 0h2.12a.186.186 0 0 0 .184-.186V6.29a.185.185 0 0 0-.185-.185H8.1a.185.185 0 0 0-.185.185v1.887c0 .102.083.185.185.186m-2.964 0h2.119a.186.186 0 0 0 .185-.186V6.29a.185.185 0 0 0-.185-.185H5.136a.186.186 0 0 0-.186.185v1.887c0 .102.084.185.186.186m5.893 2.715h2.118a.186.186 0 0 0 .186-.185V9.006a.186.186 0 0 0-.186-.186h-2.118a.185.185 0 0 0-.185.185v1.888c0 .102.082.185.185.185m-2.93 0h2.12a.185.185 0 0 0 .184-.185V9.006a.185.185 0 0 0-.184-.186h-2.12a.185.185 0 0 0-.184.185v1.888c0 .102.083.185.185.185m-2.964 0h2.119a.185.185 0 0 0 .185-.185V9.006a.185.185 0 0 0-.184-.186h-2.12a.186.186 0 0 0-.186.186v1.887c0 .102.084.185.186.185m-2.92 0h2.12a.185.185 0 0 0 .184-.185V9.006a.185.185 0 0 0-.184-.186h-2.12a.185.185 0 0 0-.184.185v1.888c0 .102.082.185.185.185M23.763 9.89c-.065-.051-.672-.51-1.954-.51-.338.001-.676.03-1.01.087-.248-1.7-1.653-2.53-1.716-2.566l-.344-.199-.226.327c-.284.438-.49.922-.612 1.43-.23.97-.09 1.897.403 2.661-.6.078-.403.682-.736 1.14-.248.34-.835 1.36-1.606 1.36-1.07 0-1.639-.716-1.639-1.749.006-1.234.57-2.129.57-2.129.034-.1 0-.247-.12-.334l-.506-.568.608-.444c.553-.401 1.985-.7 2.284-.748a9.988 9.988 0 0 0-.386-1.359 7.928 7.928 0 0 1-4.41 1.297c-2.42 0-4.652-.878-5.872-2.477a5.06 5.06 0 0 1-.781-1.182c-.147 1.773-1.627 1.948-1.627 1.948-.444.05-.625.108-.625.108v.001h.003c-.034-.007-.072-.003-.08.056-.023.173.09.273.49.398.084.026.167.05.251.071.142 0 .67-.164 1.33-.72.723.785 1.74 1.27 2.627 1.271 1.253 0 2.463-.635 3.112-1.742.146-.248.264-.508.353-.774h-.028c.066.145.116.298.152.454a5.98 5.98 0 0 1-3.59 1.647c-1.322 0-2.634-.52-3.589-1.454-.592.55-1.513.856-1.513.856 0 .382.024.75.069 1.108.63.506 1.325.982 2.077 1.29.882.346 1.836.552 2.807.552 4.926 0 7.747-3.873 8.306-4.84-.151.392-.002.802-.002.802 1.107.821 2.406.82 3.06.82.185 0 .35-.003.495-.01.09-.007.184-.006.277-.012a10.95 10.95 0 0 0 1.921-.192l-.005.02c0 .025-.008.052-.012.078-.044.287-.083.646.089.885.451.611 1.716.49 1.716.49.32-.136.38-.711.38-.711.105.062.194.14.27.231.157.184.273.414.332.683.073.227.035.402-.059.546a.795.795 0 0 1-.623.309c-.387.075-1.019.106-1.853-.12a5.603 5.603 0 0 1-1.846-.979l-.03-.023-.003.002a3.78 3.78 0 0 1-.907.11c-.292 0-.581-.037-.858-.108l.166.413c.183.425.449.787.775 1.077.172.15.365.27.577.357l.04.016c.17.055.35.095.547.124a3.6 3.6 0 0 0 .535.034c.36 0 .71-.057 1.04-.17a4.5 4.5 0 0 0 2.323-1.76l.035-.051-.002-.001a5.72 5.72 0 0 0 .7-1.27c.274-.75.397-1.554.391-2.354a5.722 5.722 0 0 0-.637-2.284l-.018-.037-.021-.003-.028-.044c-.222-.333-.506-.638-.84-.903z"/>
    </symbol>
    <symbol id="education" width="24" height="24" viewBox="0 0 24 24">
      <path d="M12 3L1 9l4 2.18v6L12 21l7-3.82v-6l2-1.09V17h2V9L12 3zm6.82 6L12 12.72 5.18 9 12 5.28 18.82 9zM17 15.99l-5 2.73-5-2.73v-3.72L12 15l5-2.73v3.72z"/>
    </symbol>
    <symbol id="certificate" width="24" height="24" viewBox="0 0 24 24">
      <path d="M4 3c-1.1 0-2 .9-2 2v8c0 1.1.9 2 2 2h8v8l2-2 2 2v-8h4c1.1 0 2-.9 2-2V5c0-1.1-.9-2-2-2H4zm2 3h5v3H6V6zm7 0h5v3h-5V6zm-7 5h5v3H6v-3zm7 0h5v3h-5v-3z"/>
    </symbol>
    <symbol id="calendar" width="24" height="24" viewBox="0 0 24 24">
      <path d="M19 19H5V8h14m-3-7v2H8V1H6v2H5c-1.11 0-2 .89-2 2v14a2 2 0 002 2h14a2 2 0 002-2V5a2 2 0 00-2-2h-1V1m-1 11h-5v5h5v-5z"/>
    </symbol>
    <symbol id="soundcloud" width="24" height="24" viewBox="0 0 24 24">
      <path d="M11.56 8.87V17h8.76c1.56 0 2.83-1.3 2.83-2.92 0-1.62-1.27-2.92-2.83-2.92-.32 0-.63.07-.93.18C18.75 9.23 17.17 8 15.38 8c-1.15 0-2.16.56-2.8 1.47-.29-.4-.76-.6-1.02-.6M0 10.5h1.19v5.1H0v-5.1zm2.05 0h1.2v5.97H2.05v-5.97zm2.07-1.3h1.19v7.28H4.12V9.2zm2.04 0h1.19v7.28H6.16V9.2zm1.71 0h1.19v7.28H7.87V9.2z"/>
    </symbol>
    <symbol id="spark" viewBox="0 0 24 24">
      <path d="M8.04 6.85c-.42-.5-.42-1.23 0-1.73.43-.49 1.12-.49 1.54 0l.06.07 4.64 5.69c.11.14.17.31.17.49s-.06.35-.17.49l-4.64 5.69c-.06.07-.06.07-.06.07-.42.5-1.11.5-1.54 0-.42-.5-.42-1.23 0-1.73l3.9-4.78L8.04 6.85z"/>
      <path d="M14.02 2.85c-.42-.5-.42-1.23 0-1.73.43-.49 1.12-.49 1.54 0l.06.07 4.64 5.69c.11.14.17.31.17.49s-.06.35-.17.49l-4.64 5.69c-.06.07-.06.07-.06.07-.42.5-1.11.5-1.54 0-.42-.5-.42-1.23 0-1.73l3.9-4.78L14.02 2.85z"/>
    </symbol>
    <symbol id="airflow" viewBox="0 0 24 24">
      <path d="M12 1.5L5.5 5v4l6.5 3.5L18.5 9V5L12 1.5zm0 2.12L16.5 6L12 8.38 7.5 6 12 3.62zm-4.5 4.5L12 10.62l4.5-2.5v2.25L12 13.12 7.5 10.37V8.12zm9 0v2.25L12 13.12 7.5 10.37V8.12L12 10.62l4.5-2.5z"/>
      <path d="M6 13.5l-2.5 1.5v3l2.5 1.5 2.5-1.5v-3L6 13.5zm0 1.73l1 .58v1.34l-1 .58-1-.58v-1.34l1-.58z"/>
      <path d="M18 13.5l-2.5 1.5v3l2.5 1.5 2.5-1.5v-3L18 13.5zm0 1.73l1 .58v1.34l-1 .58-1-.58v-1.34l1-.58z"/>
    </symbol>
    <symbol id="kafka" viewBox="0 0 24 24">
      <path d="M12 0C5.373 0 0 5.373 0 12s5.373 12 12 12 12-5.373 12-12S18.627 0 12 0zm7.37 9.68c-.195-.27-.52-.43-.87-.43h-1.49v-.65c0-.36-.29-.65-.65-.65s-.65.29-.65.65v.65h-1.8V8.6c0-.36-.29-.65-.65-.65s-.65.29-.65.65v.65h-1.8v-.65c0-.36-.29-.65-.65-.65s-.65.29-.65.65v.65H8.49c-.35 0-.675.16-.87.43-.195.27-.195.63 0 .9l1.61 2.22-1.61 2.22c-.195.27-.195.63 0 .9.195.27.52.43.87.43h1.66v.65c0 .36.29.65.65.65s.65-.29.65-.65v-.65h1.8v.65c0 .36.29.65.65.65s.65-.29.65-.65v-.65h1.8v.65c0 .36.29.65.65.65s.65-.29.65-.65v-.65h1.49c.35 0 .675-.16.87-.43.195-.27.195-.63 0-.9L17.76 12l1.61-2.22c.195-.27.195-.63 0-.9z"/>
    </symbol>
    <symbol id="snowflake" viewBox="0 0 24 24">
      <path d="M12 3.515l1.31.76 1.31-.76V1.04l-1.31.76L12 1.04v2.475zm-2.62 1.52L12 3.515l2.62 1.52-.655 1.135L12 4.65l-1.965 1.52-.655-1.135zM5.88 7.345l.655 1.135L12 6.96l5.465 1.52.655-1.135L12 5.825 5.88 7.345zM4.04 12L12 8.48l7.96 3.52L12 15.52 4.04 12zm7.96 3.52l7.96-3.52-.655-1.135L12 12.385l-7.305-1.52-.655 1.135L12 15.52zm0 4.96l-2.62-1.52.655-1.135L12 19.35l1.965-1.52.655 1.135L12 20.48zm0-2.475V22.96l1.31-.76 1.31.76v-2.475l-1.31-.76L12 18.005z"/>
    </symbol>
    <symbol id="aws" viewBox="0 0 24 24">
      <path d="M6.763 10.036c0 .296.032.535.088.71.064.176.144.368.256.576.048.08.064.16.064.24 0 .096-.08.192-.24.288l-.8.528c-.112.08-.224.12-.336.12-.128 0-.256-.064-.384-.176-.112-.128-.208-.256-.288-.416-.08-.16-.168-.336-.256-.528-.64.752-1.44 1.136-2.4 1.136-.688 0-1.232-.192-1.64-.576-.416-.384-.624-.896-.624-1.536 0-.68.24-1.232.728-1.648.488-.416 1.136-.624 1.936-.624.272 0 .544.016.832.064.288.048.584.112.88.192v-.64c0-.672-.144-1.136-.424-1.424-.288-.288-.768-.432-1.456-.432-.304 0-.616.032-.936.112-.32.08-.632.176-.928.304-.144.064-.256.096-.32.112-.064.016-.112.016-.144.016-.128 0-.192-.096-.192-.288v-.464c0-.144.016-.256.064-.336.048-.08.128-.16.24-.224.304-.16.672-.288 1.088-.4.416-.112.864-.16 1.328-.16 1.024 0 1.768.24 2.24.704.464.464.704 1.168.704 2.128v2.784zM4.252 12.556c.256 0 .528-.048.808-.144.288-.096.544-.272.768-.512.144-.16.24-.336.288-.544.048-.208.08-.448.08-.736v-.368c-.224-.064-.464-.112-.704-.144-.24-.032-.48-.048-.704-.048-.496 0-.864.096-1.088.288-.224.192-.336.464-.336.816 0 .336.08.576.24.736.16.16.4.24.704.24zM10.684 13.552c-.16 0-.272-.032-.336-.08-.064-.048-.128-.144-.176-.288l-1.936-6.368c-.048-.16-.08-.272-.08-.336 0-.128.064-.208.192-.208h.784c.176 0 .288.032.336.08.064.048.112.144.16.288l1.376 5.424 1.28-5.424c.032-.144.096-.24.16-.288.064-.048.176-.08.336-.08h.64c.176 0 .288.032.336.08.064.048.128.144.16.288l1.296 5.488 1.424-5.488c.048-.144.112-.24.16-.288.064-.048.176-.08.336-.08h.752c.128 0 .208.064.208.208 0 .064-.016.128-.032.208-.016.08-.048.176-.096.288l-1.984 6.368c-.048.16-.112.24-.176.288-.064.048-.176.08-.336.08h-.688c-.176 0-.288-.032-.336-.08-.064-.048-.128-.144-.16-.288l-1.28-5.328-1.264 5.328c-.048.144-.096.24-.16.288-.064.048-.176.08-.336.08h-.688zM19.228 13.68c-.416 0-.832-.048-1.248-.144-.416-.096-.736-.208-.976-.336-.144-.08-.24-.176-.288-.256-.048-.08-.064-.168-.064-.256v-.48c0-.192.064-.288.192-.288.048 0 .096.016.144.032.048.016.128.048.208.08.288.128.592.224.912.288.32.064.64.096.96.096.496 0 .88-.08 1.136-.256.256-.176.384-.416.384-.736 0-.208-.064-.384-.192-.528-.128-.144-.368-.288-.704-.416l-1.008-.32c-.8-.256-1.392-.624-1.728-1.088-.336-.464-.512-1.008-.512-1.616 0-.464.096-.88.288-1.248.192-.368.448-.688.768-.944.32-.256.688-.448 1.104-.576.416-.128.848-.192 1.296-.192.176 0 .368.016.544.032.176.016.352.048.512.08.16.032.304.08.432.128.128.048.224.096.288.144.112.08.192.16.24.256.048.096.08.208.08.336v.448c0 .192-.064.288-.192.288-.064 0-.176-.032-.336-.096-.48-.208-1.008-.32-1.584-.32-.448 0-.8.064-1.056.208-.256.144-.384.368-.384.688 0 .208.08.384.224.528.144.144.416.288.8.432l.992.32c.784.256 1.36.608 1.696 1.04.336.432.512.928.512 1.488 0 .48-.096.912-.288 1.296-.192.384-.464.72-.8.976-.336.256-.736.448-1.2.576-.448.128-.928.192-1.424.192z"/>
    </symbol>
    <symbol id="gcp" viewBox="0 0 24 24">
      <path d="M21.64 12.64c-.48-2.73-2.65-4.87-5.39-5.39 0 .01-.01.01-.01.02h-.01c-.37-1.93-2.11-3.39-4.23-3.39-1.44 0-2.7.71-3.47 1.8-.37-.08-.75-.12-1.14-.12-3.01 0-5.45 2.44-5.45 5.45 0 .39.04.77.12 1.14C.97 12.61.01 14.09.01 15.82c0 2.76 2.23 4.99 4.99 4.99h11.62c3.46 0 6.26-2.8 6.26-6.26 0-2.34-1.28-4.38-3.18-5.46-.02-.26-.04-.51-.06-.45zm-5.62 2.86h-3.52v3.52c0 .39-.32.71-.71.71s-.71-.32-.71-.71v-3.52H7.56c-.39 0-.71-.32-.71-.71s.32-.71.71-.71h3.52V8.56c0-.39.32-.71.71-.71s.71.32.71.71v3.52h3.52c.39 0 .71.32.71.71s-.32.71-.71.71z"/>
    </symbol>
    <symbol id="kubernetes" viewBox="0 0 24 24">
      <path d="M10.204 14.35l.007.01-.999 2.413a5.171 5.171 0 0 1-2.075-2.597l2.578-.437.004.005a.44.44 0 0 1 .485.606zm.529-4.508a.437.437 0 0 1 .438-.437h.01l2.942.012a5.14 5.14 0 0 1-.231 3.002l-2.603-.873L10.733 9.842zm2.853 5.448a.44.44 0 0 1-.167.589l-2.535 1.494a5.155 5.155 0 0 1-2.912-.021l1.474-2.623.004-.007a.436.436 0 0 1 .59-.168l3.546 1.296zm-3.916-8.517l-.007.01-1.474-2.624a5.171 5.171 0 0 1 2.912-.021l2.535 1.494a.44.44 0 0 1 .167.589l-3.546 1.296a.436.436 0 0 1-.587-.744zm4.344 3.447l.01.006-.999-2.413a5.171 5.171 0 0 1 2.075 2.597l-2.578.437-.004-.005a.44.44 0 0 1-.504-.622zm-6.198-.886a.437.437 0 0 1-.438.437h-.01l-2.942-.012a5.14 5.14 0 0 1 .231-3.002l2.603.873.556 1.704zm-2.853-5.448a.44.44 0 0 1 .167-.589L7.565 1.343a5.155 5.155 0 0 1 2.912.021L8.003 4.987l-.004.007a.436.436 0 0 1-.59.168L3.863 3.866zm8.27.886a.44.44 0 0 1 .504.622l-.01-.006.999 2.413a5.171 5.171 0 0 1-2.075-2.597l2.578-.437.004.005zm2.853 5.448a.44.44 0 0 1-.167.589l-3.546 1.296a.436.436 0 0 1-.59-.168L16.997 12l-.004-.007a.436.436 0 0 1 .59-.168l3.546-1.296a.44.44 0 0 1 .004.005zm-8.27-.886a.44.44 0 0 1-.504-.622l.01.006-.999-2.413a5.171 5.171 0 0 1 2.075 2.597l-2.578.437-.004-.005zM12 24C5.373 24 0 18.627 0 12S5.373 0 12 0s12 5.373 12 12-5.373 12-12 12zm0-1.5a10.5 10.5 0 1 0 0-21 10.5 10.5 0 0 0 0 21z"/>
    </symbol>
    <symbol id="postgresql" viewBox="0 0 24 24">
      <path d="M23.111 5.441c-.777-.438-2.667-.58-4.213-.292-1.156.215-2.2.58-3.121 1.071V4.441c0-.777-.58-1.414-1.302-1.414-.723 0-1.303.637-1.303 1.414v5.441c-1.414-.292-2.898-.146-4.213.292-1.546.507-2.667 1.414-3.029 2.481-.362 1.067.073 2.19 1.156 2.91.723.507 1.592.723 2.461.723.292 0 .58-.073.87-.146l-.073 5.66c0 .777.58 1.414 1.303 1.414.722 0 1.302-.637 1.302-1.414v-5.66c.723.146 1.448.146 2.19 0v5.66c0 .777.58 1.414 1.303 1.414.723 0 1.302-.637 1.302-1.414v-5.66c.723.146 1.448.146 2.19 0l-.073 5.66c0 .777.58 1.414 1.303 1.414.722 0 1.302-.637 1.302-1.414v-5.66c.292.073.58.146.87.146.87 0 1.739-.216 2.462-.723 1.083-.72 1.518-1.843 1.156-2.91-.362-1.067-1.483-1.974-3.029-2.481zm-7.181 4.729c-1.302.146-2.606.146-3.908 0V7.848c1.302-.146 2.606-.146 3.908 0v2.322z"/>
    </symbol>
    <symbol id="mongodb" viewBox="0 0 24 24">
      <path d="M17.193 9.555c-1.264-5.58-4.252-7.414-4.573-8.115-.28-.394-.53-.954-.735-1.44-.036.495-.055.685-.523 1.184-.723.566-4.438 3.682-4.74 10.02-.282 5.912 4.27 9.435 4.888 9.884l.07.05A73.49 73.49 0 0 1 11.91 24h.481c.114-1.032.284-2.056.51-3.07.417-.296.604-.463.85-.693a11.342 11.342 0 0 0 3.639-8.464c.01-.814-.103-1.662-.197-2.218zm-5.336 8.195s0-8.291.275-8.29c.213 0 .49 10.695.49 10.695-.381-.045-.765-1.76-.765-2.405z"/>
    </symbol>
    <symbol id="git" viewBox="0 0 24 24">
      <path d="M23.546 10.93L13.067.452c-.604-.603-1.582-.603-2.188 0L8.708 2.627l2.76 2.76c.645-.215 1.379-.07 1.889.441.516.515.658 1.258.438 1.9l2.658 2.66c.645-.223 1.387-.078 1.9.435.721.72.721 1.884 0 2.604-.719.719-1.881.719-2.6 0-.539-.541-.674-1.337-.404-1.996L12.86 8.955v6.525c.176.086.337.203.488.348.713.717.713 1.88 0 2.596-.719.719-1.896.719-2.613 0-.717-.718-.717-1.879 0-2.598.177-.177.384-.297.583-.406V8.835c-.198-.11-.406-.222-.583-.402-.545-.543-.676-1.342-.396-2.009L7.636 3.7.45 10.881c-.6.605-.6 1.584 0 2.189l10.48 10.477c.604.604 1.582.604 2.186 0l10.43-10.43c.605-.603.605-1.582 0-2.187"/>
    </symbol>
    <symbol id="terraform" viewBox="0 0 24 24">
      <path d="M8.497 5.909L14.889 2.43v6.444L8.497 12.353V5.909zm-6.444 3.5L8.444 6.93v6.444L2.053 16.853V9.409zm12.888-1.167l6.392-3.479v6.444L14.94 14.686V8.242zm0 8.166l6.392-3.479v6.444L14.94 22.852v-6.444z"/>
    </symbol>
    <symbol id="dbt" viewBox="0 0 24 24">
      <path d="M12 2C6.477 2 2 6.477 2 12s4.477 10 10 10 10-4.477 10-10S17.523 2 12 2zm-1.5 14.5v-9L15 12l-4.5 4.5z"/>
    </symbol>
    <symbol id="sql" viewBox="0 0 24 24">
      <path d="M16.176 8.706L21.2 5.8 12 0 2.8 5.8l5.024 2.906L12 6.16l4.176 2.546zM2.8 18.2L12 24l9.2-5.8v-6.72L16.176 15.294 12 17.84l-4.176-2.546L2.8 11.48v6.72zm9.2-12.04L7.824 8.706l-5.024-2.906v6.72l5.024 2.906L12 12.88l4.176 2.546 5.024-2.906V5.8L16.176 8.706 12 6.16z"/>
    </symbol>
  </defs>
</svg>
