<?xml version="1.0" standalone="no"?>
<!DOCTYPE svg PUBLIC "-//W3C//DTD SVG 20010904//EN"
 "http://www.w3.org/TR/2001/REC-SVG-20010904/DTD/svg10.dtd">
<svg version="1.0" xmlns="http://www.w3.org/2000/svg"
 width="500.000000pt" height="500.000000pt" viewBox="0 0 500.000000 500.000000"
 preserveAspectRatio="xMidYMid meet">

<g transform="translate(0.000000,500.000000) scale(0.100000,-0.100000)"
fill="#000000" stroke="none">
<path d="M2370 4784 c-329 -37 -521 -87 -765 -196 -492 -220 -902 -619 -1128
-1098 -410 -866 -248 -1886 408 -2569 309 -322 669 -530 1110 -641 192 -49
263 -59 465 -67 986 -36 1883 567 2229 1500 22 59 43 123 47 142 l6 35 -185 0
-186 0 -3 418 c-3 402 -4 419 -24 462 -45 93 -105 131 -209 131 -73 0 -119
-17 -157 -57 -56 -60 -58 -78 -58 -535 l0 -419 -234 0 -235 0 -3 418 -3 417
-28 58 c-47 94 -132 133 -251 115 -76 -11 -133 -64 -156 -147 -6 -21 -10 -203
-10 -448 l0 -413 -235 0 -235 0 0 680 0 680 233 -2 232 -3 5 -68 5 -67 55 45
c68 56 152 101 215 115 114 26 280 7 391 -46 59 -28 169 -123 179 -155 4 -10
9 -19 13 -19 4 0 37 28 73 63 75 71 157 123 236 149 71 24 217 25 305 3 84
-22 185 -76 237 -128 l43 -42 -8 30 c-18 77 -104 293 -163 410 -118 232 -261
424 -453 611 -341 329 -781 548 -1248 619 -100 15 -436 28 -510 19z m-994
-1881 c187 -344 188 -346 201 -317 8 16 80 171 161 344 l147 315 268 3 c198 2
267 -1 267 -9 0 -11 -138 -282 -240 -474 -21 -38 -207 -396 -415 -795 -208
-399 -384 -735 -391 -748 -14 -22 -15 -22 -279 -22 -199 0 -265 3 -265 12 0 6
102 207 226 446 136 263 224 442 221 453 -4 14 -339 615 -578 1038 -26 47 -46
88 -43 93 3 4 124 8 269 8 l263 0 188 -347z"/>
</g>
</svg>
